<svg width="16" height="15" viewBox="0 0 16 15" fill="none" xmlns="http://www.w3.org/2000/svg">
<path d="M7.04894 0.926317C7.3483 0.00500679 8.6517 0.00500727 8.95106 0.926318L10.0206 4.21811C10.1545 4.63014 10.5385 4.9091 10.9717 4.9091H14.4329C15.4016 4.9091 15.8044 6.14871 15.0207 6.71811L12.2205 8.75256C11.87 9.0072 11.7234 9.45857 11.8572 9.87059L12.9268 13.1624C13.2261 14.0837 12.1717 14.8498 11.388 14.2804L8.58778 12.246C8.2373 11.9913 7.7627 11.9913 7.41221 12.246L4.61204 14.2804C3.82833 14.8498 2.77385 14.0837 3.0732 13.1624L4.14277 9.87059C4.27665 9.45857 4.12999 9.0072 3.7795 8.75256L0.979333 6.71811C0.195619 6.14871 0.598395 4.9091 1.56712 4.9091H5.02832C5.46154 4.9091 5.8455 4.63014 5.97937 4.21811L7.04894 0.926317Z" fill="#FFB800"/>
</svg>
